<?xml version="1.0" encoding="utf-8"?>
<!-- Generator: Adobe Illustrator 16.0.0, SVG Export Plug-In . SVG Version: 6.00 Build 0)  -->
<!DOCTYPE svg PUBLIC "-//W3C//DTD SVG 1.1//EN" "http://www.w3.org/Graphics/SVG/1.1/DTD/svg11.dtd">
<svg version="1.1" xmlns="http://www.w3.org/2000/svg" xmlns:xlink="http://www.w3.org/1999/xlink" x="0px" y="0px" width="100px"
	 height="100px" viewBox="0 0 100 100" enable-background="new 0 0 100 100" xml:space="preserve">
<g id="base">
	<g>
		<path fill-rule="evenodd" clip-rule="evenodd" d="M66.05,34.525L66.5,35.4c0.134,0,0.2,0.067,0.2,0.2l3.649,7.15H70.4
			c0.066,0,0.149,0,0.25,0c0.1,0,0.183,0.05,0.25,0.15c0.066,0.1,0.116,0.2,0.149,0.3c-0.1,1.833,0.7,4.716,2.4,8.649
			c1.8,3.733,2.717,5.767,2.75,6.101c0.033,0.1,0.017,0.217-0.05,0.35C76.116,58.333,76.1,58.366,76.1,58.4l1.15,2.5
			c0.033,0.033,0.066,0.116,0.1,0.25c-0.033,4.5-0.05,7.25-0.05,8.25c0.066,2,0.084,4,0.05,6c-0.066,4-0.583,6.199-1.55,6.6
			c-0.1,0.1-0.666,0.283-1.7,0.55c-0.066,0-0.133,0.017-0.199,0.05c-1.034,1.134-2.334,2.134-3.9,3c-0.566,0.367-2.2,1.25-4.9,2.65
			c-2.666,1.366-4.183,2.1-4.55,2.2c-0.6,0.2-1.3,0.166-2.1-0.101c-0.101,0-0.184-0.033-0.25-0.1s-0.117-0.134-0.15-0.2l-1.1-2.2
			c-0.101-0.133-0.084-0.267,0.05-0.399c0-0.101,0.066-0.167,0.2-0.2l0.149-0.075L58.4,86.65c0.433-0.2,1.449-0.634,3.05-1.301
			c1.267-0.6,2.05-0.983,2.35-1.149c2.7-1.334,4.566-2.7,5.601-4.101c0.433-0.6,0.699-1.116,0.8-1.55c0-0.066,0.033-0.133,0.1-0.2
			c0-0.1,0.05-0.183,0.15-0.25c0.133-0.1,0.267-0.133,0.399-0.1c-0.066-0.167-0.083-0.4-0.05-0.7c0.101-0.533,0.267-0.816,0.5-0.85
			c0.2-0.101,0.467-0.167,0.8-0.2c0.134,0.033,0.233,0.017,0.301-0.05c0.133-0.066,0.233-0.167,0.3-0.3
			c-0.033-0.2-0.084-0.45-0.15-0.75c-0.133-0.434-0.35-1.101-0.649-2c-0.034-0.101-0.017-0.25,0.05-0.45
			c0.033-0.101,0.116-0.167,0.25-0.2c0.767-0.267,1.25-0.733,1.45-1.4c0.166-0.633,0.333-1.133,0.5-1.5
			c0.033-0.066,0.017-0.133-0.051-0.199c0.034-1.634-0.083-3.134-0.35-4.5c-0.033-0.067-0.05-0.15-0.05-0.25l0.05-0.051
			c0-0.033,0-0.066,0-0.1c0.033-0.8-0.083-1.767-0.35-2.9H73.35c-0.533-2.033-0.5-3.566,0.101-4.6c-0.066-0.066-0.117-0.1-0.15-0.1
			c-0.1-0.233-0.684-1.667-1.75-4.301c-0.2-0.466-0.434-0.983-0.7-1.55c-1.699-4.033-2.616-6.4-2.75-7.1
			c-0.066-0.167-0.066-0.284,0-0.35c0.034-0.033,0.067-0.067,0.101-0.1l-0.851-1.7c-0.133-0.066-0.216-0.15-0.25-0.25l-2.85-5.8
			L66.05,34.525z M65.55,32.825l-2.35,1.6c-0.668-0.89-1.968-2.898-3.9-6.025c-0.3-0.533-0.6-1.033-0.899-1.5
			c-1.4-2.4-2.167-3.717-2.301-3.95c-0.033-0.034-0.033-0.083,0-0.15c-1.199-0.167-2.416-1.083-3.649-2.75
			c-0.767-0.9-1.483-1.533-2.15-1.9c-0.066-0.1-0.149-0.167-0.25-0.2c-0.1,0.033-0.167,0.017-0.2-0.05c-0.9-1.167-2-2.183-3.3-3.05
			c0-0.033-0.017-0.067-0.05-0.1v0.05c-0.433-0.133-0.983-0.333-1.65-0.6c-0.7-0.2-1.367-0.1-2,0.3c-0.067,0.1-0.184,0.133-0.35,0.1
			c-0.1-0.067-0.217-0.15-0.35-0.25c-0.467-0.767-0.867-1.35-1.2-1.75c-0.2-0.2-0.35-0.35-0.45-0.45
			c-0.167-0.133-0.35-0.15-0.55-0.05c-0.067,0.066-0.117,0.15-0.15,0.25c-0.233,0.233-0.45,0.4-0.65,0.5
			c-0.2,0.2-0.533,0.183-1-0.05v-0.05c-0.2-0.2-0.35-0.317-0.45-0.35c-0.1,0.033-0.233,0.1-0.4,0.2c-0.1,0.033-0.183,0.066-0.25,0.1
			c-0.133-0.034-0.233-0.067-0.3-0.1c-0.3-0.233-0.817-0.35-1.55-0.35c-1.767,0.033-4.017,0.733-6.75,2.1
			c-0.267,0.1-1.034,0.517-2.3,1.25c-1.433,0.833-2.367,1.367-2.8,1.6l-0.525,0.275L22.1,17.85c-0.133,0.066-0.25,0.066-0.35,0
			c-0.167,0-0.283-0.083-0.35-0.25l-1.15-2.15c0-0.133,0.017-0.267,0.05-0.4c0.267-0.833,0.65-1.417,1.15-1.75
			c0.3-0.233,1.8-1.017,4.5-2.35c2.733-1.4,4.433-2.217,5.1-2.45c1.567-0.7,3.15-1.117,4.75-1.25c0.1-0.067,0.167-0.133,0.2-0.2
			h0.05c0.7-0.667,1.133-1.05,1.3-1.15c0.867-0.5,3,0.434,6.4,2.8v0.05c1.567,1.067,3.117,2.267,4.65,3.6
			c0.767,0.6,2.984,2.217,6.65,4.85c0.066,0.066,0.117,0.117,0.15,0.15l1.25,2.45c0.066-0.033,0.116-0.033,0.149,0
			c0.167,0,0.267,0.034,0.301,0.1c0.233,0.267,1.35,2.267,3.35,6C62.374,29.376,64.141,31.685,65.55,32.825z M20.025,63.75
			l-2.4,1.625L19.05,66.8l2.825-1.95l-0.65,1.976L14.75,70.5l-2.5-3.25l6.4-3.725L20.025,63.75z M57.35,87.175
			c0.102,0.215,0.169,0.373,0.2,0.476C57.519,87.548,57.451,87.39,57.35,87.175z"/>
		<path fill-rule="evenodd" clip-rule="evenodd" fill="#292929" d="M65.55,32.825L83.6,20.6l1.125,1.125l-18.675,12.8l-1.8,1.225
			L41.075,51.675l-19.2,13.175L19.05,66.8l-1.425-1.425l2.4-1.625l20.35-13.825c0.196,0.502,0.43,1.085,0.7,1.75
			c-0.271-0.665-0.504-1.248-0.7-1.75l22.825-15.5L65.55,32.825z"/>
		
			<path fill-rule="evenodd" clip-rule="evenodd" fill="none" stroke="#000000" stroke-width="0.1" stroke-linecap="round" stroke-linejoin="round" stroke-miterlimit="3" d="
			M57.35,87.175c-0.396-0.919-1.363-2.86-2.899-5.825c-1.634-3.199-2.717-5.316-3.25-6.35c-1.9-2.967-4.15-7.866-6.75-14.7
			c-1.447-3.677-2.572-6.552-3.375-8.625c-0.271-0.665-0.504-1.248-0.7-1.75c-0.543-1.376-0.835-2.118-0.875-2.225
			c-0.2-0.3-1.317-3.117-3.35-8.45c-1.8-4.4-3.417-7.8-4.85-10.2c-1.066-1.733-2.816-4.033-5.25-6.9
			c-1.751-2.212-2.826-3.77-3.225-4.675 M57.35,87.175c0.102,0.215,0.169,0.373,0.2,0.476"/>
	</g>
</g>
<g id="arrow">
	<polygon fill-rule="evenodd" clip-rule="evenodd" fill="#0099CC" points="84.5,24 84,24 81.25,23.5 80.5,23 80.5,20.25 81,20.25 
		91.85,15.175 92,15.5 	"/>
</g>
</svg>
