<?xml version="1.0" encoding="utf-8"?>
<!-- Generator: Adobe Illustrator 16.0.0, SVG Export Plug-In . SVG Version: 6.00 Build 0)  -->
<!DOCTYPE svg PUBLIC "-//W3C//DTD SVG 1.1//EN" "http://www.w3.org/Graphics/SVG/1.1/DTD/svg11.dtd">
<svg version="1.1" xmlns="http://www.w3.org/2000/svg" xmlns:xlink="http://www.w3.org/1999/xlink" x="0px" y="0px" width="100px"
	 height="100px" viewBox="0 0 100 100" enable-background="new 0 0 100 100" xml:space="preserve">
<g id="base">
	<path fill-rule="evenodd" clip-rule="evenodd" d="M96.5,77c-4.833,2.033-8.366,3.316-10.6,3.85C82.7,81.616,76.816,82,68.25,82
		C54.217,82,41.8,81.833,31,81.5c-19.667-0.634-29.5-1.717-29.5-3.25c0-1.6,4.033-2.95,12.1-4.05c4.367-0.566,10.5-1.459,18.4-2.675
		c0.677,0.014,1.394,0.03,2.15,0.05c0.574-1.816,1.224-4.075,1.95-6.775c1.6-5.866,2.4-9.633,2.4-11.3c0-2.5-0.25-4.367-0.75-5.6
		c-0.5-1.267-0.75-2.4-0.75-3.4c0-8.367,0.5-15.533,1.5-21.5C40.3,12.333,43.467,7,48,7c3.866,0,7.917,3.267,12.15,9.8
		c1.6,2.534,2.883,5.017,3.85,7.45c0.69,1.75,1.048,3.075,1.075,3.975c-1.328-1.082-2.736-1.907-4.226-2.475
		c-1.699-0.633-3.316-1.717-4.85-3.25h-1c0,0.3,0.167,0.85,0.5,1.65c0.333,0.8,0.5,1.417,0.5,1.85c0,0.2-0.25,0.45-0.75,0.75
		c-0.5,0.333-0.75,0.583-0.75,0.75c0,2,1.566,5.267,4.7,9.8c5.033,7.3,7.8,11.367,8.3,12.2c3.333,5.8,5.566,11.15,6.7,16.05
		c0.417,1.782,0.792,4.507,1.125,8.175C86.621,74.451,93.68,75.043,96.5,75.5V77z"/>
</g>
<g id="crest">
	<path fill-rule="evenodd" clip-rule="evenodd" fill="#0099CC" d="M52.6,44.3c-0.366,0.4-0.6,0.8-0.699,1.2
		c-0.434,1.4-0.65,3-0.65,4.8c0,2.634,0.017,4.267,0.05,4.9c0.134,1.934,0.483,3.6,1.05,5c0.034,0.1,0.217,0.649,0.551,1.649
		c0.466,1.134,1.066,2.167,1.8,3.101c1.733,2.233,4.033,3.6,6.899,4.1c0.301,0.101,0.684,0.217,1.15,0.351
		c0.6,0.166,1.3,0.316,2.1,0.449c-0.033,0.034-0.366,0.117-1,0.25c-0.3,0.067-1,0.101-2.1,0.101l-1.5,0.05
		c-2.4,0-3.816-0.033-4.25-0.1c-1.6-0.2-3.434-0.801-5.5-1.801c-1.467-0.733-2.417-1.416-2.85-2.05
		c-1.033-1.434-1.55-3.866-1.55-7.3c0-1.767,0.066-3.083,0.2-3.95c0.233-1.833,0.8-3.684,1.7-5.55
		c0.767-1.633,1.817-3.017,3.15-4.15C51.717,44.883,52.2,44.533,52.6,44.3z"/>
</g>
</svg>
