<?xml version="1.0" encoding="utf-8"?>
<!-- Generator: Adobe Illustrator 16.0.0, SVG Export Plug-In . SVG Version: 6.00 Build 0)  -->
<!DOCTYPE svg PUBLIC "-//W3C//DTD SVG 1.1//EN" "http://www.w3.org/Graphics/SVG/1.1/DTD/svg11.dtd">
<svg version="1.1" xmlns="http://www.w3.org/2000/svg" xmlns:xlink="http://www.w3.org/1999/xlink" x="0px" y="0px" width="100px"
	 height="100px" viewBox="0 0 100 100" enable-background="new 0 0 100 100" xml:space="preserve">
<g id="base">
	<path fill-rule="evenodd" clip-rule="evenodd" d="M83.1,25l-4.3,7.85L55.2,58.4l1.85,1.699c1.334,1.067,2,2.317,2,3.75
		c-0.033,1.101-0.416,2.034-1.149,2.801c-1.267,1.333-2.95,1.133-5.051-0.601c-2.366-2.033-3.75-2.983-4.149-2.85
		c-1.167,0.3-2.383,0.45-3.65,0.45c-1.2,0.333-3.133,1.983-5.8,4.949c-0.167,0.134-1.333,1.301-3.5,3.5
		c-2.167,2.4-3.417,4.034-3.75,4.9c-0.3,0.967,0.317,2.833,1.85,5.6c1.4,2.567,1.75,4.2,1.05,4.9c-0.5,0.6-1.417,0.667-2.75,0.2
		c-1.1-0.4-1.967-0.917-2.6-1.55c-0.433-0.4-0.883-1.167-1.35-2.301c-0.4-1.033-0.7-1.666-0.9-1.899c-0.2-0.167-1-0.65-2.4-1.45
		l0.05-0.15c-0.833-1.233-1.317-1.883-1.45-1.949c-0.2-0.2-0.883-0.434-2.05-0.7c-1.034-0.367-1.8-0.75-2.3-1.15
		c-0.6-0.6-1.15-1.434-1.65-2.5c-0.633-1.3-0.683-2.25-0.15-2.85c0.7-0.733,2.383-0.517,5.05,0.649
		c2.867,1.334,4.783,1.817,5.75,1.45c0.833-0.399,2.3-1.783,4.4-4.149c2.133-2.301,3.233-3.534,3.3-3.7
		c2.8-2.934,4.35-4.983,4.65-6.15c-0.167-1.3-0.15-2.566,0.05-3.8c0.067-0.4-1-1.7-3.2-3.9c-1.934-1.933-2.267-3.583-1-4.95
		c0.733-0.733,1.65-1.183,2.75-1.35c1.4-0.133,2.717,0.417,3.95,1.65l1.8,1.65L68.4,23l7.449-4.75l9.301-2.85l0.05,0.3L85.1,15.75
		L83.1,25z M45,60c0.4,0.066,0.767-0.033,1.1-0.3c0.333-0.2,0.533-0.5,0.6-0.9c0.066-0.399-0.017-0.8-0.25-1.2
		c-0.2-0.3-0.5-0.5-0.9-0.6c-0.4-0.066-0.8,0.017-1.2,0.25c-0.333,0.267-0.533,0.6-0.6,1s0.017,0.767,0.25,1.1
		C44.267,59.717,44.6,59.934,45,60z"/>
</g>
<g id="blade">
	<polygon fill-rule="evenodd" clip-rule="evenodd" fill="#0099CC" points="85.1,15.75 83.1,25 78.8,32.85 56.25,57.25 
		46.175,47.175 68.4,23 75.85,18.25 85.15,15.4 85.2,15.7 	"/>
</g>
</svg>
