<?xml version="1.0" encoding="utf-8"?>
<!-- Generator: Adobe Illustrator 16.0.0, SVG Export Plug-In . SVG Version: 6.00 Build 0)  -->
<!DOCTYPE svg PUBLIC "-//W3C//DTD SVG 1.1//EN" "http://www.w3.org/Graphics/SVG/1.1/DTD/svg11.dtd">
<svg version="1.1" xmlns="http://www.w3.org/2000/svg" xmlns:xlink="http://www.w3.org/1999/xlink" x="0px" y="0px" width="100px"
	 height="100px" viewBox="0 0 100 100" enable-background="new 0 0 100 100" xml:space="preserve">
<g id="base">
	<path fill-rule="evenodd" clip-rule="evenodd" d="M82.95,5.6l0.25-0.4l0.35,0.25l-5.25,13.8l-38.15,59.6
		c0.367,0.2,0.717,0.367,1.05,0.5c0.267,0.301,0.65,0.601,1.15,0.9c1.9,1.233,4.133,1.884,6.7,1.95c0.1,0.267,0.05,0.566-0.15,0.899
		c-0.033,0.034-0.05,0.067-0.05,0.101c-0.333,0.033-0.617,0.066-0.85,0.1c-0.567,0.167-1.45,0.066-2.65-0.3
		c-0.233-0.066-0.95-0.316-2.15-0.75c-0.233-0.1-0.434-0.2-0.6-0.3l-0.9-0.55c-0.034,0-0.05-0.017-0.05-0.051l-0.1-0.05
		c-0.5-0.267-0.917-0.483-1.25-0.649l-1.1-0.7c-0.034-0.101-0.117-0.184-0.25-0.25c-0.167-0.101-0.317-0.134-0.45-0.101l-0.1-0.05
		l-8.55,11.5l-0.95-0.6l-0.1,0.2l-1.15-0.75L34.5,77.3l-0.15-0.1c0-0.134-0.083-0.25-0.25-0.351c-0.1-0.066-0.2-0.1-0.3-0.1
		l-1.1-0.7c-0.267-0.233-0.65-0.533-1.15-0.899l-0.1-0.051l-0.05-0.05l-0.85-0.55c-0.167-0.1-0.333-0.233-0.5-0.4
		c-0.933-0.933-1.483-1.5-1.65-1.699c-0.8-0.9-1.25-1.634-1.35-2.2c-0.033-0.267-0.117-0.533-0.25-0.8
		c0.034-0.034,0.05-0.067,0.05-0.101c0.233-0.333,0.5-0.517,0.8-0.55c1.133,2.3,2.65,4.05,4.55,5.25c0.5,0.333,0.933,0.55,1.3,0.65
		c0.267,0.267,0.567,0.517,0.9,0.75l38-59.351L82.75,5.5L82.95,5.6z"/>
</g>
<g id="arrow">
	<path fill-rule="evenodd" clip-rule="evenodd" fill="#0099CC" d="M25.45,67.3c0.033-0.033,0.083-0.033,0.15,0
		c0-0.066,0.017-0.133,0.05-0.2l0.15,0.2c0.167-0.033,0.317-0.017,0.45,0.05c0.067,0.067,0.2,0.184,0.4,0.351
		c0.033,0.066,0.1,0.149,0.2,0.25V67.9c0.2,0.033,0.35,0.05,0.45,0.05c0.267,0.1,0.55,0.283,0.85,0.55
		c0.333,0.434,0.567,0.833,0.7,1.2c0.1,0.267,0.15,0.616,0.15,1.05v0.05l-0.3,0.25V71l-0.2,0.15L28.45,71.1
		c-0.434-0.066-0.767-0.166-1-0.3c-0.333-0.166-0.684-0.45-1.05-0.85c-0.267-0.334-0.4-0.634-0.4-0.9c-0.033-0.1-0.033-0.267,0-0.5
		l0.05-0.05c-0.066-0.066-0.117-0.134-0.15-0.2c-0.167-0.166-0.267-0.316-0.3-0.45c-0.067-0.133-0.083-0.283-0.05-0.449L25.45,67.3z
		 M26.55,67.95c-0.066-0.066-0.117-0.084-0.15-0.05v0.05C26.401,67.917,26.451,67.917,26.55,67.95z M26.15,68.1H26.1
		c-0.067,0.067-0.067,0.101,0,0.101L26.15,68.1z M30.3,88.85c0.034,0.634,0.017,1.134-0.05,1.5c-0.1,0.5-0.367,1.084-0.8,1.75
		c-0.333,0.5-0.684,0.834-1.05,1c-0.133,0.034-0.35,0.067-0.65,0.101c-0.033,0.033-0.067,0.033-0.1,0
		c-0.1,0.133-0.183,0.25-0.25,0.35C27.233,93.816,27.1,94,27,94.1c-0.2,0.134-0.4,0.233-0.6,0.301l-0.15,0.1
		c-0.033,0-0.05-0.033-0.05-0.1c-0.1,0-0.2-0.017-0.3-0.051l0.2-0.25C26,93.866,25.967,93.65,26,93.45
		c0.067-0.167,0.183-0.384,0.35-0.65c0.066-0.1,0.133-0.217,0.2-0.35V92.4c-0.1-0.301-0.167-0.534-0.2-0.7
		c0-0.4,0.167-0.851,0.5-1.351c0.4-0.666,0.833-1.166,1.3-1.5c0.267-0.166,0.7-0.366,1.3-0.6c0.033-0.033,0.066-0.033,0.1,0L30,88.5
		v0.05l0.25,0.2L30.3,88.85z M26.65,92.95c0.033,0,0.067,0.017,0.1,0.05c-0.033-0.066-0.067-0.116-0.1-0.15
		C26.617,92.917,26.617,92.95,26.65,92.95z M27.15,93.3c0.067,0.066,0.1,0.05,0.1-0.05c-0.033,0-0.083,0.017-0.15,0.05H27.15z
		 M51.25,83.5c-0.066,0.066-0.116,0.116-0.15,0.15c0,0.033,0,0.083,0,0.149l-0.149-0.05c-0.101,0.1-0.233,0.15-0.4,0.15
		c-0.1,0.033-0.267,0-0.5-0.101c-0.066,0-0.167-0.017-0.3-0.05v0.05c-0.167,0.134-0.317,0.217-0.45,0.25
		c-0.2,0.101-0.517,0.101-0.95,0c-0.533-0.166-0.95-0.366-1.25-0.6c-0.2-0.167-0.45-0.434-0.75-0.8l0.05-0.25v0.05l0.1-0.4
		c0-0.033,0.017-0.033,0.05,0c0.4-0.2,0.733-0.316,1-0.35c0.367,0,0.817,0.05,1.35,0.149c0.4,0.134,0.684,0.301,0.85,0.5
		c0.067,0.134,0.15,0.284,0.25,0.45c0.1,0.066,0.2,0.101,0.3,0.101c0.233,0.1,0.384,0.166,0.45,0.199
		c0.134,0.101,0.217,0.217,0.25,0.351L51.25,83.5z M50.2,83.25V83.2c0-0.066-0.033-0.117-0.101-0.15
		C50.134,83.116,50.167,83.184,50.2,83.25z M50,83.6c0.066,0.034,0.116,0.034,0.15,0c-0.033-0.032-0.033-0.065,0-0.1
		C50.115,83.534,50.065,83.567,50,83.6z"/>
</g>
</svg>
