<?xml version="1.0" encoding="utf-8"?>
<!-- Generator: Adobe Illustrator 16.0.0, SVG Export Plug-In . SVG Version: 6.00 Build 0)  -->
<!DOCTYPE svg PUBLIC "-//W3C//DTD SVG 1.1//EN" "http://www.w3.org/Graphics/SVG/1.1/DTD/svg11.dtd">
<svg version="1.1" xmlns="http://www.w3.org/2000/svg" xmlns:xlink="http://www.w3.org/1999/xlink" x="0px" y="0px" width="100px"
	 height="100px" viewBox="0 0 100 100" enable-background="new 0 0 100 100" xml:space="preserve">
<g id="base">
	<g>
		<path fill-rule="evenodd" clip-rule="evenodd" d="M93,41.95c0.7,0.633,1.316,1.017,1.85,1.15l1.351,1.2
			c-0.634,0.934-1.884,2.567-3.75,4.9c-1.601,2.066-2.634,3.35-3.101,3.85c-3.1,3.5-6.05,6.017-8.85,7.55c-4.033,1.934-8,4-11.9,6.2
			c-0.1,0-0.216,0.017-0.35,0.05c-0.4,0-0.967,0.15-1.7,0.45c-1.399,0.533-2.566,0.95-3.5,1.25c-0.533,0.167-1.033,0.167-1.5,0
			c-0.166-0.066-0.533-0.267-1.1-0.6c-0.967-0.634-2.134-0.667-3.5-0.101l-0.5,0.551c-0.667-0.601-1.15-1-1.45-1.2
			c-0.434-0.334-0.833-0.566-1.2-0.7c-0.434-0.167-0.916-0.434-1.45-0.8c-0.267-0.2-0.666-0.55-1.199-1.05V64.4
			c0.433,0,1.033,0.05,1.8,0.149c0.967,0.134,1.633,0.184,2,0.15c0.066-0.134,0.149-0.45,0.25-0.95c0.033-0.3,0.083-0.5,0.149-0.6
			l0.301,0.25c0.866-0.434,1.616-0.934,2.25-1.5c0.199-0.233,0.983-1.101,2.35-2.601c1.9-2.166,3.467-4.333,4.7-6.5
			c1.399-2.533,2.05-4.633,1.95-6.3c-0.301-0.567-0.483-1.1-0.551-1.6c-0.066-0.467-0.033-0.867,0.101-1.2l-3.5-3.1l-1.15,1.35
			l-1.6-1.4L29.1,75.4l-0.35,2l0.3,0.25L14.5,93.95l-2.3-0.15l-1.15,1.351l-1.9-1.7L10.3,92.1l-0.4-2.25l14.55-16.3l0.3,0.25
			l1.95-0.6l31.1-34.85l-1.6-1.4l1.149-1.35l-3.5-3.1c-0.267,0.2-0.633,0.283-1.1,0.25c-0.533,0-1.083-0.117-1.65-0.35
			c-1.7,0.067-3.716,0.95-6.05,2.65c-2.033,1.434-4,3.233-5.9,5.4c-1.367,1.5-2.15,2.383-2.35,2.65c-0.5,0.667-0.917,1.467-1.25,2.4
			l0.3,0.25c-0.067,0.1-0.25,0.2-0.55,0.3c-0.5,0.133-0.816,0.217-0.95,0.25c0.033,0.367,0.167,1.034,0.4,2c0.2,0.8,0.3,1.4,0.3,1.8
			h-0.2c-0.533-0.466-0.934-0.833-1.2-1.1c-0.4-0.433-0.717-0.883-0.95-1.35c-0.167-0.3-0.434-0.65-0.8-1.05
			c-0.267-0.3-0.75-0.733-1.45-1.3l0.5-0.55c0.433-1.467,0.3-2.633-0.4-3.5c-0.433-0.533-0.7-0.867-0.8-1
			c-0.167-0.433-0.2-0.933-0.1-1.5c0.133-0.967,0.4-2.183,0.8-3.65c0.2-0.767,0.3-1.35,0.3-1.75c0-0.1-0.017-0.217-0.05-0.35
			c1.767-4.133,3.367-8.3,4.8-12.5c1.2-2.933,3.35-6.15,6.45-9.65c0.466-0.5,1.633-1.684,3.5-3.55c2.133-2.133,3.617-3.566,4.45-4.3
			l1.35,1.2c0.2,0.533,0.65,1.117,1.35,1.75L52.65,6.4c1.433,1.267,3.133,4.517,5.1,9.75c2.2,5.733,3.85,9.333,4.95,10.8
			c0.3,0.033,0.75,0.066,1.35,0.1l0.55,0.5L65.95,26l1.35,1.2l1.45-1.6l2.9,2.6l-1.45,1.6l1.35,1.2l-1.35,1.55l0.55,0.5
			c0.066,0.567,0.15,1,0.25,1.3c1.566,0.933,5.316,2.15,11.25,3.65c5.434,1.4,8.866,2.717,10.3,3.95H93z"/>
		
			<path fill-rule="evenodd" clip-rule="evenodd" fill="none" stroke="#000000" stroke-linecap="round" stroke-linejoin="round" stroke-miterlimit="3" d="
			M93,41.95c0.7,0.633,1.316,1.017,1.85,1.15l1.351,1.2c-0.634,0.934-1.884,2.567-3.75,4.9c-1.601,2.066-2.634,3.35-3.101,3.85
			c-3.1,3.5-6.05,6.017-8.85,7.55c-4.033,1.934-8,4-11.9,6.2c-0.1,0-0.216,0.017-0.35,0.05c-0.4,0-0.967,0.15-1.7,0.45
			c-1.399,0.533-2.566,0.95-3.5,1.25c-0.533,0.167-1.033,0.167-1.5,0c-0.166-0.066-0.533-0.267-1.1-0.6
			c-0.967-0.634-2.134-0.667-3.5-0.101l-0.5,0.551c-0.667-0.601-1.15-1-1.45-1.2c-0.434-0.334-0.833-0.566-1.2-0.7
			c-0.434-0.167-0.916-0.434-1.45-0.8c-0.267-0.2-0.666-0.55-1.199-1.05"/>
	</g>
</g>
<g id="arrow">
	<path fill-rule="evenodd" clip-rule="evenodd" fill="#0099CC" d="M85,48.05c-0.434,1.534-1.833,3.634-4.2,6.3
		c-2.033,2.267-3.916,3.301-5.649,3.101c-1.233-0.134-2.851-1.101-4.851-2.9c-1.333-1.2-1.866-2.483-1.6-3.85
		c0.1-0.5,0.366-1.067,0.8-1.7c0.3-0.5,0.7-1.017,1.2-1.55c1.2-1.367,2.2-2.15,3-2.35c0.833-0.2,1.733,0.133,2.7,1
		c0.733,0.633,1.1,1.316,1.1,2.05c0.033,0.633-0.2,1.467-0.7,2.5c-0.133,0.1-0.267,0.233-0.399,0.399
		c-0.367,0.4-0.834,0.684-1.4,0.851c-0.167,0.066-0.3,0.1-0.4,0.1c-0.399,0-0.899-0.083-1.5-0.25c-0.166-0.134-0.366-0.3-0.6-0.5
		c-0.4-0.366-0.65-0.583-0.75-0.65c0-0.033-0.017-0.05-0.05-0.05c-0.101,0-0.2,0.033-0.3,0.101c-0.067,0.1-0.101,0.267-0.101,0.5
		c0.033,0.199,0.066,0.383,0.101,0.55c0,0.033,0,0.083,0,0.149c0.066,0.301,0.433,0.75,1.1,1.351c0.967,0.866,1.934,1.149,2.9,0.85
		c0.166-0.066,0.333-0.133,0.5-0.2c0.199-0.033,0.399-0.116,0.6-0.25c0.467-0.233,1-0.683,1.6-1.35c0.867-1,1.317-1.517,1.351-1.55
		c0.533-0.667,0.883-1.25,1.05-1.75c0.1-0.4,0.15-0.784,0.15-1.15c-0.034-0.367-0.117-0.85-0.25-1.45c-0.067-0.567-0.284-1-0.65-1.3
		c-0.134-0.333-0.35-0.617-0.65-0.85c-0.8-0.733-1.649-1.167-2.55-1.3c-0.6-0.033-1.416,0.017-2.45,0.15
		c-0.233,0.034-0.449,0.067-0.649,0.1c-0.4,0.067-0.75,0.1-1.05,0.1c0-0.033-0.017-0.05-0.051-0.05L72,43.1
		c-0.767-0.367-1.417-0.783-1.95-1.25c-0.5-0.434-0.899-0.934-1.2-1.5c-0.166-0.4-0.267-0.617-0.3-0.65H68.5
		c0-0.233-0.033-0.45-0.1-0.65c0.033-0.466,0.05-0.933,0.05-1.4c0.666,0.8,1.6,1.35,2.8,1.65c0.7,0.2,1.95,0.367,3.75,0.5
		c0.7,0.034,1.333,0.083,1.9,0.15c0.866,0.1,1.6,0.216,2.199,0.35c1.534,0.4,2.817,1.067,3.851,2
		C84.917,44.067,85.6,45.983,85,48.05z M49.3,18.1c-0.6-0.033-1.083-0.05-1.45-0.05c-0.4,0.034-0.767,0.117-1.1,0.25
		c-0.533,0.2-1.1,0.633-1.7,1.3c-0.033,0.033-0.483,0.533-1.35,1.5c-0.6,0.7-0.983,1.283-1.15,1.75c-0.1,0.2-0.167,0.417-0.2,0.65
		c-0.067,0.133-0.117,0.283-0.15,0.45c-0.167,1.033,0.233,1.983,1.2,2.85c0.667,0.567,1.15,0.867,1.45,0.9
		c0.066,0,0.117-0.017,0.15-0.05c0.167,0.067,0.35,0.083,0.55,0.05c0.233-0.034,0.383-0.1,0.45-0.2c0.1-0.1,0.133-0.183,0.1-0.25
		l-0.05-0.05c-0.066-0.067-0.316-0.284-0.75-0.65c-0.2-0.2-0.383-0.383-0.55-0.55c-0.233-0.567-0.383-1.05-0.45-1.45
		c0.034-0.133,0.05-0.283,0.05-0.45c0.133-0.6,0.383-1.1,0.75-1.5c0.133-0.133,0.25-0.25,0.35-0.35
		c0.966-0.633,1.75-0.983,2.35-1.05c0.733-0.067,1.467,0.233,2.2,0.9c0.967,0.867,1.4,1.7,1.3,2.5c-0.1,0.867-0.767,1.983-2,3.35
		c-0.466,0.533-0.933,0.983-1.4,1.35c-0.566,0.467-1.1,0.784-1.6,0.95c-1.3,0.467-2.633,0.083-4-1.15c-2-1.767-3.15-3.267-3.45-4.5
		c-0.4-1.7,0.417-3.684,2.45-5.95c2.367-2.667,4.3-4.316,5.8-4.95c1.967-0.767,3.933-0.267,5.9,1.5c1.033,0.9,1.85,2.083,2.45,3.55
		c0.166,0.567,0.366,1.267,0.6,2.1c0.134,0.6,0.267,1.233,0.4,1.9c0.3,1.767,0.6,2.983,0.899,3.65c0.467,1.2,1.15,2.067,2.051,2.6
		c-0.5,0.067-1.017,0.133-1.551,0.2c-0.133-0.034-0.316-0.05-0.55-0.05c-0.033-0.033-0.283-0.117-0.75-0.25
		c-0.533-0.2-1.05-0.517-1.55-0.95c-0.566-0.5-1.066-1.1-1.5-1.8l-0.2-0.35c0-0.033-0.017-0.05-0.05-0.05
		c0.033-0.3,0.033-0.65,0-1.05c0.033-0.2,0.033-0.417,0-0.65c0.066-1.1,0.033-1.917-0.1-2.45c-0.233-0.934-0.75-1.75-1.551-2.45
		c-0.267-0.267-0.583-0.45-0.949-0.55C50.316,18.3,49.867,18.133,49.3,18.1z M76.1,49.45l0.15-0.2
		c-0.033,0.033-0.083,0.083-0.15,0.15V49.45z"/>
</g>
</svg>
